Coordinates
version=1
nRows=16
nColumns=63
inDegrees=yes

Units are S.I. units (second, meters, Newtons, ...)
If the header above contains a line with 'inDegrees', this indicates whether rotational values are in degrees (yes) or radians (no).

endheader
time	pelvis_tilt	pelvis_list	pelvis_rotation	pelvis_tx	pelvis_ty	pelvis_tz	hip_flexion_r	hip_adduction_r	hip_rotation_r	knee_angle_r	knee_angle_r_beta	ankle_angle_r	subtalar_angle_r	mtp_angle_r	hip_flexion_l	hip_adduction_l	hip_rotation_l	knee_angle_l	knee_angle_l_beta	ankle_angle_l	subtalar_angle_l	mtp_angle_l	L5_S1_Flex_Ext	L5_S1_Lat_Bending	L5_S1_axial_rotation	L4_L5_Flex_Ext	L4_L5_Lat_Bending	L4_L5_axial_rotation	L3_L4_Flex_Ext	L3_L4_Lat_Bending	L3_L4_axial_rotation	L2_L3_Flex_Ext	L2_L3_Lat_Bending	L2_L3_axial_rotation	L1_L2_Flex_Ext	L1_L2_Lat_Bending	L1_L2_axial_rotation	L1_T12_Flex_Ext	L1_T12_Lat_Bending	L1_T12_axial_rotation	Abs_r3	Abs_r2	Abs_r1	Abs_t1	Abs_t2	neck_flexion	neck_bending	neck_rotation	arm_flex_r	arm_add_r	arm_rot_r	elbow_flex_r	pro_sup_r	wrist_flex_r	wrist_dev_r	arm_flex_l	arm_add_l	arm_rot_l	elbow_flex_l	pro_sup_l	wrist_flex_l	wrist_dev_l
0.826087	-2.314272	-4.785339	91.118552	0.210209	0.637921	0.691267	6.770656	-2.941922	-20.208688	10.099485	0.176269	15.417734	14.902472	0.000000	7.088185	3.536586	0.325545	5.128324	0.089506	7.876023	-12.779989	0.000000	0.322571	-0.194448	-0.458048	0.599046	-0.258616	-0.486676	0.529951	-0.472781	-0.486676	0.368666	-0.472781	-0.400792	0.299539	-0.396518	-0.372164	0.184317	-0.301200	-0.343536	2.304089	-2.199634	-2.547525	0.000000	0.000000	25.940023	6.057010	-2.635397	3.990436	-10.665274	36.698882	60.707898	76.031788	4.486848	10.861974	-0.178058	-13.727711	33.467210	64.220068	61.753245	2.009483	14.427979
0.847826	-2.217357	-4.747042	91.342903	0.209514	0.638023	0.690982	6.681811	-2.876197	-20.342390	10.068468	0.175728	15.533755	14.783742	0.000000	7.075708	3.471042	0.367289	5.152661	0.089931	8.179456	-12.399495	0.000000	0.311003	-0.177033	-0.520374	0.577563	-0.235454	-0.552898	0.510946	-0.430438	-0.552898	0.355445	-0.430438	-0.455328	0.288797	-0.361006	-0.422804	0.177707	-0.274224	-0.390281	2.221461	-2.002634	-2.894166	0.000000	0.000000	25.980282	6.200416	-1.506640	4.336875	-10.850316	37.400304	59.682617	77.884770	4.380223	9.827960	-0.296712	-13.603166	33.317896	63.573887	63.353026	2.714657	14.264216
0.869565	-2.108272	-4.675001	91.583434	0.208736	0.638107	0.690669	6.573333	-2.806764	-20.475085	10.075608	0.175853	15.726523	14.688129	0.000000	7.019388	3.401795	0.489653	5.167575	0.090191	8.446093	-12.130030	0.000000	0.298622	-0.155896	-0.587189	0.554571	-0.207341	-0.623888	0.490606	-0.379044	-0.623888	0.341295	-0.379044	-0.513790	0.277300	-0.317902	-0.477091	0.170633	-0.241482	-0.440392	2.133027	-1.763522	-3.265769	0.000000	0.000000	25.944243	6.296890	-0.255424	4.693488	-11.085244	38.164914	58.600763	79.752727	3.960952	8.676044	-0.372125	-13.506809	33.191350	62.970900	65.405703	3.434151	14.415661
0.891304	-1.993962	-4.575373	91.845903	0.207898	0.638172	0.690345	6.449292	-2.740463	-20.631955	10.122619	0.176673	15.970871	14.616518	0.000000	6.924951	3.335109	0.707342	5.167301	0.090186	8.653915	-11.973481	0.000000	0.285764	-0.132820	-0.657482	0.530693	-0.176651	-0.698574	0.469482	-0.322940	-0.698574	0.326600	-0.322940	-0.575296	0.265361	-0.270848	-0.534204	0.163286	-0.205739	-0.493111	2.041185	-1.502492	-3.656716	0.000000	0.000000	25.879626	6.380228	1.094454	5.046364	-11.350460	38.940756	57.479227	81.528240	3.139303	7.408807	-0.384040	-13.445379	33.067956	62.410419	67.854468	4.208094	14.830689
0.913043	-1.876147	-4.469595	92.109250	0.207064	0.638199	0.690044	6.334197	-2.673567	-20.785012	10.203470	0.178084	16.237196	14.548718	0.000000	6.816430	3.267374	1.017245	5.149917	0.089883	8.792501	-11.926631	0.000000	0.274437	-0.108874	-0.718960	0.509658	-0.144802	-0.763895	0.450873	-0.264715	-0.763895	0.313655	-0.264715	-0.629090	0.254843	-0.222015	-0.584155	0.156814	-0.168645	-0.539220	1.960279	-1.231599	-3.998639	0.000000	0.000000	25.840282	6.452236	2.495267	5.332612	-11.612638	39.517060	56.377715	83.242634	2.042656	6.141409	-0.285651	-13.415727	33.020354	61.890160	70.657895	4.937777	15.496478
0.934783	-1.756671	-4.361255	92.372427	0.206242	0.638186	0.689756	6.223520	-2.606836	-20.941868	10.306381	0.179880	16.504642	14.491175	0.000000	6.694320	3.201717	1.432659	5.108192	0.089155	8.846666	-12.023069	0.000000	0.264151	-0.084481	-0.766756	0.490555	-0.112360	-0.814679	0.433974	-0.205407	-0.814679	0.301898	-0.205407	-0.670912	0.245291	-0.172274	-0.622990	0.150936	-0.130861	-0.575067	1.886806	-0.955666	-4.264469	0.000000	0.000000	25.875382	6.543425	3.919461	5.493481	-11.850891	39.743726	55.372762	84.773332	0.714147	4.956026	-0.059864	-13.426094	33.152113	61.379649	73.586389	5.514577	16.119947
0.956522	-1.653589	-4.266814	92.620169	0.205531	0.638127	0.689541	6.142350	-2.555493	-21.085119	10.437948	0.182177	16.741307	14.406720	0.000000	6.582234	3.149737	1.931844	5.051609	0.088167	8.825447	-12.233863	0.000000	0.256181	-0.063201	-0.798646	0.475753	-0.084057	-0.848561	0.420879	-0.153666	-0.848561	0.292789	-0.153666	-0.698815	0.237889	-0.128879	-0.648900	0.146382	-0.097898	-0.598984	1.829873	-0.714937	-4.441828	0.000000	0.000000	25.965713	6.669863	5.337967	5.562051	-12.038747	39.653456	54.419529	86.099202	-0.794639	3.847795	0.285441	-13.477089	33.370781	60.896266	76.506627	6.141562	16.866885
0.978261	-1.559705	-4.185578	92.866277	0.204894	0.638040	0.689397	6.077420	-2.511987	-21.237354	10.574422	0.184558	16.925826	14.314952	0.000000	6.482667	3.105857	2.505782	4.985660	0.087016	8.738918	-12.543036	0.000000	0.249499	-0.044059	-0.808599	0.463344	-0.058599	-0.859137	0.409901	-0.107126	-0.859137	0.285152	-0.107126	-0.707524	0.231684	-0.089846	-0.656987	0.142564	-0.068248	-0.606450	1.782144	-0.498407	-4.497187	0.000000	0.000000	26.103227	6.794860	6.671062	5.493977	-12.173549	39.122799	53.569016	87.214159	-2.395537	2.930616	0.784156	-13.555429	33.817206	60.397306	79.330774	6.551771	17.501197
1.000000	-1.480882	-4.114572	93.097169	0.204354	0.637924	0.689315	6.023708	-2.479018	-21.377095	10.707756	0.186886	17.055167	14.194913	0.000000	6.395663	3.073386	3.115951	4.918995	0.085853	8.609982	-12.920344	0.000000	0.242908	-0.027916	-0.792320	0.451105	-0.037128	-0.841840	0.399074	-0.067875	-0.841840	0.277620	-0.067875	-0.693280	0.225565	-0.056926	-0.643760	0.138798	-0.043242	-0.594240	1.735070	-0.315791	-4.406647	0.000000	0.000000	26.265388	6.871611	7.847473	5.293535	-12.254782	38.142700	52.824755	88.156786	-4.002540	2.252523	1.411179	-13.647058	34.433310	59.895562	81.932891	6.730214	17.928025
1.021739	-1.408791	-4.056729	93.314302	0.203894	0.637791	0.689282	5.978591	-2.446614	-21.509924	10.824899	0.188930	17.122133	14.054355	0.000000	6.320774	3.043199	3.744859	4.842028	0.084509	8.445454	-13.337799	0.000000	0.236984	-0.013710	-0.750950	0.440103	-0.018234	-0.797884	0.389341	-0.033334	-0.797884	0.270849	-0.033334	-0.657081	0.220063	-0.027957	-0.610147	0.135413	-0.021237	-0.563213	1.692754	-0.155089	-4.176559	0.000000	0.000000	26.430757	6.898618	8.838897	4.991573	-12.310642	36.810633	52.174915	88.890168	-5.553417	1.834324	2.153267	-13.728117	35.220876	59.374429	84.254949	6.523511	18.009055
1.043478	-1.340861	-4.007988	93.508530	0.203489	0.637643	0.689251	5.932467	-2.411511	-21.654867	10.916131	0.190522	17.136729	13.924758	0.000000	6.247111	3.013885	4.393678	4.744961	0.082815	8.251318	-13.824198	0.000000	0.231840	-0.000706	-0.683025	0.430550	-0.000940	-0.725714	0.380889	-0.001718	-0.725714	0.264970	-0.001718	-0.597647	0.215286	-0.001441	-0.554958	0.132473	-0.001094	-0.512269	1.656008	-0.007992	-3.798780	0.000000	0.000000	26.595850	6.858209	9.610099	4.586370	-12.346764	35.182315	51.632616	89.330695	-7.069769	1.712213	2.967437	-13.761125	36.112453	58.847396	86.211300	5.871044	17.776774
1.065217	-1.271074	-3.955786	93.679745	0.203102	0.637521	0.689231	5.870085	-2.367522	-21.798566	10.972556	0.191507	17.078627	13.815112	0.000000	6.157078	2.978363	5.056779	4.615911	0.080563	8.046442	-14.333583	0.000000	0.227177	0.011883	-0.592522	0.421891	0.015805	-0.629554	0.373230	0.028893	-0.629554	0.259641	0.028893	-0.518457	0.210957	0.024233	-0.481424	0.129809	0.018407	-0.444391	1.622706	0.134428	-3.295428	0.000000	0.000000	26.685877	6.747501	10.111569	4.143507	-12.391225	33.413309	51.158927	89.462057	-8.464146	1.844291	3.858377	-13.748727	37.136862	58.277973	87.754870	4.751251	17.198632
1.086957	-1.198103	-3.885886	93.840982	0.202711	0.637441	0.689128	5.757862	-2.306800	-21.939420	10.971042	0.191481	16.933192	13.682902	0.000000	6.035475	2.933559	5.646396	4.466964	0.077963	7.889098	-14.749483	0.000000	0.222132	0.024524	-0.494759	0.412522	0.032617	-0.525682	0.364941	0.059627	-0.525682	0.253875	0.059627	-0.432914	0.206272	0.050009	-0.401992	0.126926	0.037987	-0.371070	1.586668	0.277417	-2.751703	0.000000	0.000000	26.720970	6.573178	10.385904	3.710664	-12.441490	31.641823	50.695829	89.383976	-9.638107	2.006938	4.704260	-13.675174	38.059832	57.692830	89.118084	3.333797	16.313568
1.108696	-1.105722	-3.789132	93.995902	0.202271	0.637416	0.688911	5.575456	-2.209723	-22.098514	10.893780	0.190132	16.693975	13.562717	0.000000	5.868098	2.863677	6.187920	4.290170	0.074878	7.765515	-15.103888	0.000000	0.215836	0.040841	-0.396647	0.400828	0.054319	-0.421438	0.354596	0.099302	-0.421438	0.246679	0.099302	-0.347066	0.200425	0.083284	-0.322276	0.123328	0.063263	-0.297486	1.541692	0.462006	-2.206034	0.000000	0.000000	26.722989	6.332480	10.522151	3.292541	-12.507899	29.907002	50.251942	89.131602	-10.592061	2.202771	5.447701	-13.542518	38.802712	57.097056	90.051818	1.737370	15.231668
1.130435	-1.002479	-3.663753	94.137255	0.201744	0.637438	0.688537	5.327613	-2.092779	-22.263707	10.763734	0.187863	16.390530	13.468858	0.000000	5.655067	2.780609	6.657971	4.099884	0.071556	7.699515	-15.381302	0.000000	0.208877	0.061385	-0.302329	0.387905	0.081642	-0.321224	0.343164	0.149251	-0.321224	0.238726	0.149251	-0.264537	0.193963	0.125176	-0.245642	0.119352	0.095085	-0.226746	1.491987	0.694396	-1.681461	0.000000	0.000000	26.709628	6.009021	10.580390	2.876932	-12.595919	28.226495	49.846616	88.813897	-11.295661	2.407887	6.068852	-13.383666	39.480278	56.461979	90.485123	-0.166597	13.939232
1.152174	-0.875847	-3.504126	94.286902	0.201145	0.637525	0.687978	4.994662	-1.932011	-22.464906	10.548687	0.184109	16.020681	13.422913	0.000000	5.390984	2.667188	7.071248	3.895989	0.067998	7.705581	-15.573553	0.000000	0.201060	0.088137	-0.220236	0.373389	0.117222	-0.234001	0.330322	0.214297	-0.234001	0.229792	0.214297	-0.192707	0.186705	0.179729	-0.178942	0.114886	0.136524	-0.165177	1.436154	0.997025	-1.224888	0.000000	0.000000	26.681801	5.613284	10.650686	2.446923	-12.682244	26.589393	49.469323	88.625727	-11.797832	2.521584	6.548659	-13.216987	40.131649	55.755036	90.449076	-2.236755	12.472713
